<?xml version="1.0" encoding="UTF-8"?>
<svg xmlns="http://www.w3.org/2000/svg" width="900" height="600" viewBox="0 0 900 600" font-family="-apple-system, BlinkMacSystemFont, 'Segoe UI', Roboto, 'PingFang SC', 'Hiragino Sans GB', 'Microsoft YaHei', sans-serif">
<rect width="900" height="600" fill="#ffffff"/>
<text x="450" y="26" text-anchor="middle" font-size="17" font-weight="bold" fill="#0b0b0b">LLaMA-70B decode 工作点 vs roofline（FP16 dense 口径）</text>
<text x="450" y="44" text-anchor="middle" font-size="11" fill="#52514e">FP16 权重 + FP16 KV，g=8，T=4096；对数坐标。算力墙 dense：H100/H200 = 989、B200 = 2250 TFLOPs；拐点 ridge = 206 / 281 / 295 FLOP/byte</text>
<line x1="80" y1="500" x2="820" y2="500" stroke="#c3c2b7" stroke-width="1"/>
<line x1="80" y1="50" x2="80" y2="500" stroke="#c3c2b7" stroke-width="1"/>
<line x1="162.2" y1="500" x2="162.2" y2="495" stroke="#c3c2b7"/>
<text x="162.2" y="518" text-anchor="middle" font-size="11" fill="#898781">1</text>
<line x1="326.6" y1="500" x2="326.6" y2="495" stroke="#c3c2b7"/>
<text x="326.6" y="518" text-anchor="middle" font-size="11" fill="#898781">10</text>
<line x1="491.1" y1="500" x2="491.1" y2="495" stroke="#c3c2b7"/>
<text x="491.1" y="518" text-anchor="middle" font-size="11" fill="#898781">100</text>
<line x1="655.5" y1="500" x2="655.5" y2="495" stroke="#c3c2b7"/>
<text x="655.5" y="518" text-anchor="middle" font-size="11" fill="#898781">1000</text>
<line x1="820.0" y1="500" x2="820.0" y2="495" stroke="#c3c2b7"/>
<text x="820.0" y="518" text-anchor="middle" font-size="11" fill="#898781">10 000</text>
<text x="450" y="548" text-anchor="middle" font-size="13" fill="#52514e">算术强度 AI (FLOP/byte)</text>
<line x1="75" y1="455.0" x2="80" y2="455.0" stroke="#c3c2b7"/>
<text x="71" y="459.0" text-anchor="end" font-size="11" fill="#898781">1</text>
<line x1="75" y1="365.0" x2="80" y2="365.0" stroke="#c3c2b7"/>
<text x="71" y="369.0" text-anchor="end" font-size="11" fill="#898781">10</text>
<line x1="75" y1="275.0" x2="80" y2="275.0" stroke="#c3c2b7"/>
<text x="71" y="279.0" text-anchor="end" font-size="11" fill="#898781">100</text>
<line x1="75" y1="185.0" x2="80" y2="185.0" stroke="#c3c2b7"/>
<text x="71" y="189.0" text-anchor="end" font-size="11" fill="#898781">1 000</text>
<line x1="75" y1="95.0" x2="80" y2="95.0" stroke="#c3c2b7"/>
<text x="71" y="99.0" text-anchor="end" font-size="11" fill="#898781">10 000</text>
<text x="30" y="280" text-anchor="middle" font-size="13" fill="#52514e" transform="rotate(-90 30 280)">可达吞吐 (TFLOPs)</text>
<line x1="80" y1="185.4" x2="542.7" y2="185.4" stroke="#898781" stroke-width="1" stroke-dasharray="6,4" opacity="0.7"/>
<line x1="542.7" y1="185.4" x2="820" y2="185.4" stroke="#52514e" stroke-width="2"/>
<line x1="80" y1="153.3" x2="565.0" y2="153.3" stroke="#898781" stroke-width="1" stroke-dasharray="6,4" opacity="0.7"/>
<line x1="565.0" y1="153.3" x2="820" y2="153.3" stroke="#52514e" stroke-width="2"/>
<text x="84" y="180.4" font-size="10" fill="#52514e">FP16 dense 算力墙 989（H100/H200）</text>
<text x="84" y="148.3" font-size="10" fill="#52514e">FP16 dense 算力墙 2250（B200）</text>
<line x1="162.2" y1="407.7" x2="568.4" y2="185.4" stroke="#2a78d6" stroke-width="2"/>
<circle cx="568.4" cy="185.4" r="4" fill="#ffffff" stroke="#2a78d6" stroke-width="2"/>
<text x="156.2" y="411.7" text-anchor="end" font-size="11" fill="#52514e">H100 <tspan fill="#898781" font-size="10">3.35 TB/s</tspan></text>
<line x1="162.2" y1="393.7" x2="542.7" y2="185.4" stroke="#1baf7a" stroke-width="2"/>
<circle cx="542.7" cy="185.4" r="4" fill="#ffffff" stroke="#1baf7a" stroke-width="2"/>
<text x="156.2" y="397.7" text-anchor="end" font-size="11" fill="#52514e">H200 <tspan fill="#898781" font-size="10">4.8 TB/s</tspan></text>
<line x1="162.2" y1="373.7" x2="565.0" y2="153.3" stroke="#eda100" stroke-width="2"/>
<circle cx="565.0" cy="153.3" r="4" fill="#ffffff" stroke="#eda100" stroke-width="2"/>
<text x="156.2" y="377.7" text-anchor="end" font-size="11" fill="#52514e">B200 <tspan fill="#898781" font-size="10">8.0 TB/s</tspan></text>
<circle cx="167.0" cy="405.1" r="5.5" fill="#008300" stroke="#ffffff" stroke-width="2"/>
<text x="177.0" y="418.1" font-size="11" fill="#52514e">B=1 <tspan fill="#898781" font-size="10">AI=1.07</tspan></text>
<circle cx="310.7" cy="326.5" r="5.5" fill="#008300" stroke="#ffffff" stroke-width="2"/>
<text x="320.7" y="339.5" font-size="11" fill="#52514e">B=8 <tspan fill="#898781" font-size="10">AI=8</tspan></text>
<circle cx="396.0" cy="279.8" r="5.5" fill="#008300" stroke="#ffffff" stroke-width="2"/>
<text x="406.0" y="292.8" font-size="11" fill="#52514e">B=32 <tspan fill="#898781" font-size="10">AI=26.4</tspan></text>
<circle cx="457.0" cy="246.4" r="5.5" fill="#008300" stroke="#ffffff" stroke-width="2"/>
<text x="467.0" y="263.4" font-size="11" fill="#52514e">B=128 <tspan fill="#898781" font-size="10">AI=62</tspan></text>
<defs><marker id="arr" viewBox="0 0 8 8" refX="7" refY="4" markerWidth="7" markerHeight="7" orient="auto"><path d="M0,0 L8,4 L0,8 z" fill="#52514e"/></marker></defs>
<line x1="465.0" y1="246.4" x2="536.7" y2="246.4" stroke="#52514e" stroke-width="1.2" stroke-dasharray="4,3" marker-end="url(#arr)"/>
<text x="545" y="250.4" font-size="11" fill="#52514e">还差 3.3× 才到最近拐点</text>
<circle cx="758.0" cy="185.4" r="6" fill="#4a3aa7" stroke="#ffffff" stroke-width="2"/>
<text x="758.0" y="173.4" text-anchor="middle" font-size="11" fill="#52514e">prefill B=1, S=4096 <tspan fill="#898781" font-size="10">AI≈4200</tspan></text>
<text x="200" y="472" font-size="12" fill="#898781" font-style="italic">← 带宽受限：decode 全部工作点在这里</text>
<text x="660" y="203.4" font-size="12" fill="#898781" font-style="italic">算力受限：prefill 在这里 →</text>
<g transform="translate(622,320)" font-size="11">
<rect x="0" y="-14" width="192" height="102" fill="#ffffff" stroke="#c3c2b7" rx="4"/>
<line x1="10" y1="0" x2="30" y2="0" stroke="#2a78d6" stroke-width="2.5"/>
<text x="37" y="4" fill="#52514e">H100 带宽线（ridge 295）</text>
<line x1="10" y1="17" x2="30" y2="17" stroke="#1baf7a" stroke-width="2.5"/>
<text x="37" y="21" fill="#52514e">H200 带宽线（ridge 206）</text>
<line x1="10" y1="34" x2="30" y2="34" stroke="#eda100" stroke-width="2.5"/>
<text x="37" y="38" fill="#52514e">B200 带宽线（ridge 281）</text>
<circle cx="20" cy="51" r="5" fill="#008300" stroke="#fff" stroke-width="1.5"/>
<text x="37" y="55" fill="#52514e">decode 工作点（B=1…128）</text>
<circle cx="20" cy="68" r="5" fill="#4a3aa7" stroke="#fff" stroke-width="1.5"/>
<text x="37" y="72" fill="#52514e">prefill 工作点（S=4096）</text>
</g>
</svg>